<svg width="34" height="28" viewBox="0 0 34 28" fill="none" xmlns="http://www.w3.org/2000/svg">
<mask id="mask0_8626_23410" style="mask-type:alpha" maskUnits="userSpaceOnUse" x="0" y="0" width="28" height="28">
<rect width="28" height="28" fill="#FFFFFF"/>
</mask>
<g mask="url(#mask0_8626_23410)">
<path d="M6.8 18.0625H8.6V15.6875H11V18.0625H12.8V10.9375H11V13.9062H8.6V10.9375H6.8V18.0625ZM15.2 18.0625H20C20.34 18.0625 20.625 17.9487 20.855 17.7211C21.085 17.4935 21.2 17.2115 21.2 16.875V12.125C21.2 11.7885 21.085 11.5065 20.855 11.2789C20.625 11.0513 20.34 10.9375 20 10.9375H15.2V18.0625ZM17 16.2812V12.7188H19.4V16.2812H17ZM4.4 24C3.74 24 3.175 23.7674 2.705 23.3023C2.235 22.8372 2 22.2781 2 21.625V7.375C2 6.72187 2.235 6.16276 2.705 5.69766C3.175 5.23255 3.74 5 4.4 5H23.6C24.26 5 24.825 5.23255 25.295 5.69766C25.765 6.16276 26 6.72187 26 7.375V21.625C26 22.2781 25.765 22.8372 25.295 23.3023C24.825 23.7674 24.26 24 23.6 24H4.4Z" fill="#1C1B1F"/>
</g>
<circle cx="26.0063" cy="21.9984" r="3.6" fill="black"/>
<mask id="mask1_8626_23410" style="mask-type:alpha" maskUnits="userSpaceOnUse" x="20" y="16" width="12" height="12">
<rect x="20" y="16" width="12" height="12" fill="#FFFFFF"/>
</mask>
<g mask="url(#mask1_8626_23410)">
<path d="M25.3 24.3L28.825 20.775L28.125 20.075L25.3 22.9L23.875 21.475L23.175 22.175L25.3 24.3ZM26 27C25.3083 27 24.6583 26.8687 24.05 26.6062C23.4417 26.3438 22.9125 25.9875 22.4625 25.5375C22.0125 25.0875 21.6562 24.5583 21.3938 23.95C21.1312 23.3417 21 22.6917 21 22C21 21.3083 21.1312 20.6583 21.3938 20.05C21.6562 19.4417 22.0125 18.9125 22.4625 18.4625C22.9125 18.0125 23.4417 17.6562 24.05 17.3938C24.6583 17.1312 25.3083 17 26 17C26.6917 17 27.3417 17.1312 27.95 17.3938C28.5583 17.6562 29.0875 18.0125 29.5375 18.4625C29.9875 18.9125 30.3438 19.4417 30.6062 20.05C30.8687 20.6583 31 21.3083 31 22C31 22.6917 30.8687 23.3417 30.6062 23.95C30.3438 24.5583 29.9875 25.0875 29.5375 25.5375C29.0875 25.9875 28.5583 26.3438 27.95 26.6062C27.3417 26.8687 26.6917 27 26 27Z" fill="white"/>
</g>
</svg>
